<svg viewBox="0 0 13 44" xmlns="http://www.w3.org/2000/svg" xmlns:xlink="http://www.w3.org/1999/xlink" width="13.000000" height="44.000000" fill="none">
	<rect id="globalnav_bag_image__yzte50i47ciu_large.svg" width="13.000000" height="44.000000" x="0.000000" y="0.000000" />
	<g id="Group">
		<path id="Vector" d="M0 44L13 44L13 0L0 0L0 44Z" fill-rule="evenodd" />
		<path id="Vector" d="M12 25.9C12 26.5 11.5 27 10.9 27L2.1 27C1.5 27 1 26.5 1 25.9L1 18C1 17.5 1.5 17 2.1 17L11 17C11.6 17 12.1 17.5 12.1 18.1L12.1 25.9L12 25.9ZM6.5 14C7.7 14 8.6 14.9 8.8 16L4.2 16C4.4 14.9 5.3 14 6.5 14ZM10.9 16L9.8 16C9.6 14.3 8.2 13 6.5 13C4.8 13 3.4 14.3 3.2 16L2.1 16C0.9 16 0 16.9 0 18.1L0 26C0 27.1 0.9 28 2.1 28L11 28C12.1 28 13.1 27.1 13.1 25.9L13.1 18C13 16.9 12.1 16 10.9 16Z" fill="rgb(255,255,255)" fill-rule="evenodd" />
	</g>
</svg>
