<svg viewBox="0 0 45 54" xmlns="http://www.w3.org/2000/svg" xmlns:xlink="http://www.w3.org/1999/xlink" width="45.000000" height="54.000000" fill="none" customFrame="#000000">
	<defs>
		<clipPath id="clipPath_2">
			<rect width="45.000000" height="54.000000" x="0.000000" y="0.000000" fill="rgb(255,255,255)" />
		</clipPath>
	</defs>
	<rect id="figure" width="45.000000" height="54.000000" x="0.000000" y="0.000000" />
	<g id="iphone_compare_light__f4jj7brpbvm2_large.svg" clip-path="url(#clipPath_2)" customFrame="url(#clipPath_2)">
		<rect id="iphone_compare_light__f4jj7brpbvm2_large.svg" width="45.000000" height="54.000000" x="0.000000" y="0.000000" />
		<path id="Vector" d="M0 0L45 0L45 54L0 54L0 0Z" fill-rule="nonzero" />
		<path id="Vector" d="M14.5 13L5.5 13C4.04185 13.0017 2.64391 13.5818 1.61284 14.6128C0.58177 15.6439 0.00174664 17.0418 8.88178e-16 18.5L0 44.5C0.00182586 45.9581 0.581875 47.356 1.61293 48.3871C2.64398 49.4181 4.04187 49.9982 5.5 50L14.5 50C15.9581 49.9982 17.356 49.4181 18.3871 48.3871C19.4181 47.356 19.9982 45.9581 20 44.5L20 18.5C19.9983 17.0418 19.4182 15.6439 18.3872 14.6128C17.3561 13.5818 15.9582 13.0017 14.5 13ZM18 44.5C17.9989 45.4279 17.6298 46.3175 16.9736 46.9736C16.3175 47.6298 15.4279 47.9989 14.5 48L5.5 48C4.57208 47.9989 3.68249 47.6298 3.02635 46.9736C2.37022 46.3175 2.00111 45.4279 2 44.5L2 18.5C2.00111 17.5721 2.37022 16.6825 3.02635 16.0264C3.68249 15.3702 4.57208 15.0011 5.5 15L14.5 15C15.4279 15.0011 16.3175 15.3702 16.9736 16.0264C17.6298 16.6825 17.9989 17.5721 18 18.5L18 44.5ZM44 36.5L45 36.5L45 42.5L44 42.5L44 36.5ZM32 13L38 13L38 14L32 14L32 13ZM44 28.5L45 28.5L45 34.5L44 34.5L44 28.5ZM32 49L38 49L38 50L32 50L32 49ZM26 34.5L25 34.5L25 28.5L26 28.5L26 34.5ZM26 26.5L25 26.5L25 20.5L26 20.5L26 26.5ZM26 42.5L25 42.5L25 36.5L26 36.5L26 42.5ZM40 14.05L40 13.0253C41.3655 13.1512 42.6349 13.7822 43.5597 14.7948C44.4845 15.8074 44.9981 17.1287 45 18.5L44 18.5C43.9979 17.396 43.5887 16.3315 42.8506 15.5104C42.1126 14.6893 41.0976 14.1693 40 14.05ZM44 44.5L45 44.5C44.9981 45.8713 44.4845 47.1926 43.5597 48.2052C42.6349 49.2178 41.3655 49.8488 40 49.9747L40 48.95C41.0976 48.8307 42.1126 48.3107 42.8506 47.4896C43.5887 46.6685 43.9979 45.604 44 44.5ZM30 13.0253L30 14.05C28.9024 14.1693 27.8874 14.6893 27.1494 15.5104C26.4113 16.3315 26.0021 17.396 26 18.5L25 18.5C25.0019 17.1287 25.5155 15.8074 26.4403 14.7948C27.3651 13.7822 28.6345 13.1512 30 13.0253ZM30 48.95L30 49.9751C28.6344 49.8492 27.365 49.2181 26.4402 48.2054C25.5154 47.1928 25.0018 45.8714 25 44.5L26 44.5C26.0021 45.604 26.4113 46.6685 27.1494 47.4896C27.8874 48.3107 28.9024 48.8307 30 48.95ZM44 20.5L45 20.5L45 26.5L44 26.5L44 20.5Z" fill="rgb(29,29,31)" fill-rule="nonzero" />
	</g>
</svg>
