<svg viewBox="0 0 40 54" xmlns="http://www.w3.org/2000/svg" xmlns:xlink="http://www.w3.org/1999/xlink" width="40.000000" height="54.000000" fill="none" customFrame="#000000">
	<defs>
		<clipPath id="clipPath_5">
			<rect width="40.000000" height="54.000000" x="0.000000" y="0.000000" fill="rgb(255,255,255)" />
		</clipPath>
	</defs>
	<rect id="figure" width="40.000000" height="54.000000" x="0.000000" y="0.000000" />
	<g id="accessories_light__ed5l6ipsevqu_large.svg" clip-path="url(#clipPath_5)" customFrame="url(#clipPath_5)">
		<rect id="accessories_light__ed5l6ipsevqu_large.svg" width="40.000000" height="54.000000" x="0.000000" y="0.000000" />
		<path id="Vector" d="M0 0L40 0L40 54L0 54L0 0Z" fill-rule="nonzero" />
		<path id="Vector" d="M24.3983 5.09658C24.0476 4.40428 23.4852 3.84186 22.7929 3.49108C22.4443 3.31584 22.0727 3.19041 21.6891 3.11848C21.2952 3.04684 20.8961 3.00728 20.4957 3.00018C20.1281 2.98878 19.641 3.00018 19.2541 3.00018L6.53044 3.00018C6.36544 3.00018 6.20284 3.00018 6.04144 3.00068C5.42861 2.98281 4.81544 3.02225 4.20994 3.11848C3.82634 3.19048 3.45472 3.3159 3.10594 3.49108C2.41398 3.84217 1.85181 4.40451 1.50094 5.09658C1.32583 5.44525 1.20041 5.81672 1.12834 6.20018C1.06797 6.52419 1.0312 6.85215 1.01834 7.18148C1.00274 7.50668 1.00074 7.85918 1.00024 8.19428L1.00024 8.63518L1.00024 44.3512C1.00024 44.5001 1.00024 44.647 1.00024 44.7921C1.00024 45.1272 1.00274 45.4797 1.01834 45.805C1.03122 46.1343 1.06798 46.4623 1.12834 46.7863C1.2004 47.1698 1.32582 47.5414 1.50094 47.8902C1.85187 48.5824 2.41419 49.1448 3.10634 49.4958C3.45513 49.6709 3.82674 49.7963 4.21034 49.8683C4.60428 49.94 5.00339 49.9796 5.40374 49.9868C5.77114 49.9982 6.25844 49.9968 6.64544 49.9968C11.3664 49.9968 12.991 50.0002 17.7119 50.0002C17.5936 49.9002 17.4919 49.7617 17.3419 49.6379C17.1447 49.4326 16.9659 49.2102 16.8078 48.9734C16.6154 48.6931 16.4649 48.3863 16.3611 48.0625C16.2562 47.7302 16.1751 47.3908 16.1184 47.047C16.0625 46.7495 16.0287 46.4482 16.0173 46.1457C16.0026 45.8468 16.0007 45.5233 16.0002 45.2157C16.0002 45.081 16.0002 44.9451 16.0002 44.8071L16.0002 11.1934C16.0002 11.0554 16.0002 10.9196 16.0002 10.785C16.0002 10.4772 16.0026 10.1536 16.0173 9.85498C16.029 9.55246 16.0628 9.25119 16.1184 8.95358C16.1846 8.60074 16.2999 8.25894 16.4611 7.93818C16.7838 7.30138 17.3012 6.78403 17.9379 6.46128C18.2588 6.30009 18.6007 6.18473 18.9536 6.11858C19.5048 6.02745 20.0633 5.98811 20.6218 6.00108C20.7829 6.00018 20.9459 6.00018 21.1115 6.00018L24.865 6.00018M11.3349 9.68098C11.3349 9.94488 11.3349 10.1286 11.3344 10.2822C11.3339 10.4332 11.3324 10.5583 11.3285 10.6732C11.3235 10.8983 11.2981 11.1226 11.2528 11.3432C11.2046 11.5735 11.1247 11.796 11.0153 12.0044C10.7881 12.4355 10.4357 12.7879 10.0045 13.0152C9.79614 13.1244 9.57368 13.2043 9.34344 13.2528C9.12283 13.298 8.89859 13.3233 8.67344 13.3284C8.55844 13.3324 8.43344 13.3338 8.28234 13.3342C8.12874 13.3349 7.94494 13.3348 7.68104 13.3348L6.31924 13.3348C6.05534 13.3348 5.87154 13.3348 5.71794 13.3342C5.56684 13.3342 5.44184 13.3324 5.32684 13.3284C5.1017 13.3233 4.87746 13.298 4.65684 13.2528C4.42661 13.2043 4.20415 13.1244 3.99574 13.0152C3.56459 12.7879 3.21223 12.4355 2.98494 12.0044C2.8756 11.796 2.79567 11.5735 2.74744 11.3432C2.70214 11.1226 2.67681 10.8983 2.67174 10.6732C2.66784 10.5583 2.66634 10.4332 2.66584 10.2822C2.66534 10.1285 2.66534 9.94488 2.66534 9.68098L2.66534 8.31938C2.66534 8.05538 2.66534 7.87178 2.66584 7.71818C2.66584 7.56698 2.66784 7.44188 2.67174 7.32708C2.67681 7.10193 2.70215 6.87769 2.74744 6.65708C2.79583 6.42681 2.87575 6.20431 2.98494 5.99588C3.21214 5.56469 3.56433 5.21222 3.99534 4.98468C4.20375 4.87548 4.42621 4.79553 4.65644 4.74708C4.87706 4.70187 5.1013 4.67657 5.32644 4.67148C5.44144 4.66748 5.56644 4.66618 5.71754 4.66558L6.31884 4.66558L7.68064 4.66558L8.28194 4.66558C8.43304 4.66618 8.55804 4.66748 8.67284 4.67148C8.89819 4.67653 9.12263 4.70183 9.34344 4.74708C9.57368 4.79553 9.79614 4.87548 10.0045 4.98468C10.4356 5.21205 10.788 5.56438 11.0153 5.99548C11.1247 6.20386 11.2046 6.42637 11.2528 6.65668C11.2981 6.87729 11.3235 7.10153 11.3285 7.32668C11.3324 7.44158 11.3339 7.56668 11.3344 7.71778C11.3349 7.87148 11.3349 8.05508 11.3349 8.31898L11.3349 9.68098ZM35.9999 24.3082L35.9999 45.6921C35.9655 46.0693 35.7842 46.4178 35.4951 46.6625C35.206 46.9073 34.8323 47.0285 34.4545 47.0002L21.5453 47.0002C21.1676 47.0285 20.7939 46.9073 20.5048 46.6625C20.2157 46.4178 20.0344 46.0693 19.9999 45.6921L19.9999 24.3133C20.0345 23.9347 20.2164 23.5848 20.5066 23.3392C20.7967 23.0935 21.1718 22.9718 21.5509 23.0002L34.4547 23.0002C34.8324 22.9718 35.2061 23.0931 35.4952 23.3378C35.7843 23.5825 35.9655 23.931 35.9999 24.3082ZM38.9999 11.8216C38.9994 11.5138 38.9977 11.1902 38.9833 10.8916C38.9714 10.5891 38.9375 10.2878 38.8819 9.99018C38.8158 9.63734 38.7004 9.29554 38.5392 8.97478C38.2164 8.33814 37.6991 7.82088 37.0624 7.49798C36.7416 7.33669 36.3997 7.22129 36.0467 7.15518C35.6844 7.08917 35.3174 7.05271 34.9491 7.04618C34.6109 7.03618 34.1627 7.03698 33.8067 7.03698L22.0867 7.03698C21.9211 7.03698 21.7581 7.03698 21.5967 7.03778C21.0382 7.02473 20.4797 7.06404 19.9285 7.15518C19.5756 7.22132 19.2337 7.33671 18.9128 7.49798C18.276 7.82058 17.7587 8.33784 17.4359 8.97458C17.2747 9.2954 17.1594 9.63727 17.0932 9.99018C17.0376 10.2878 17.0038 10.5891 16.9921 10.8916C16.9774 11.1904 17.0006 11.514 17.0001 11.8216L17.0001 12.2301L17.0001 44.8069L17.0001 45.2155C17.0001 45.5233 16.9774 45.8468 16.9921 46.1455C17.0038 46.448 17.0376 46.7492 17.0932 47.0468C17.1594 47.3997 17.2747 47.7415 17.4359 48.0623C17.7586 48.6991 18.276 49.2164 18.9127 49.5392C19.2336 49.7003 19.5755 49.8156 19.9284 49.8819C20.2908 49.9479 20.658 49.9844 21.0263 49.9908C21.3642 50.0013 21.8124 49.9999 22.1684 49.9999L33.8884 49.9999L34.3784 49.9999C34.9369 50.0128 35.4953 49.9735 36.0463 49.8824C36.3993 49.8162 36.7412 49.7008 37.062 49.5397C37.6987 49.2167 38.2159 48.6994 38.5388 48.0628C38.7001 47.742 38.8154 47.4002 38.8815 47.0473C38.9371 46.7497 38.971 46.4485 38.9829 46.146C38.9973 45.8471 38.999 45.5236 38.9995 45.216C38.9995 45.0813 38.9995 44.9454 38.9995 44.8074L38.9995 12.2302C38.9999 12.0921 38.9999 11.9563 38.9999 11.8216ZM18.6642 11.705C18.6649 11.5544 18.6661 11.4297 18.67 11.315C18.6751 11.0905 18.7002 10.867 18.7452 10.6471C18.7937 10.4177 18.8735 10.196 18.9823 9.98828C19.2085 9.55884 19.5595 9.20794 19.9889 8.98178C20.1966 8.87296 20.4182 8.79327 20.6476 8.74498C20.8676 8.69993 21.0912 8.67472 21.3156 8.66968C21.4298 8.66578 21.5544 8.66448 21.705 8.66388C21.8581 8.66328 22.0412 8.66388 22.3041 8.66388L23.6957 8.66388L24.151 8.66388C24.2975 8.66388 24.4594 8.66389 24.6064 8.66758C24.9103 8.66838 25.2128 8.70721 25.507 8.78318C25.8417 8.87295 26.1532 9.03365 26.4203 9.25438C26.6874 9.47511 26.9039 9.75071 27.0551 10.0625C27.1973 10.3634 27.2841 10.6874 27.3112 11.0191C27.3266 11.1772 27.3322 11.3355 27.3344 11.5191C27.3366 11.6869 27.3361 11.9486 27.3361 12.3042L27.3361 13.6969C27.3361 13.9597 27.3361 14.1427 27.3356 14.2957C27.3349 14.4462 27.3336 14.5709 27.3297 14.6852C27.3247 14.9096 27.2994 15.1332 27.2543 15.3531C27.2062 15.5825 27.1266 15.8042 27.0177 16.0119C26.7912 16.4414 26.4402 16.7924 26.0106 17.0189C25.803 17.1277 25.5814 17.2073 25.352 17.2556C25.1321 17.3006 24.9085 17.3258 24.684 17.3308C24.5697 17.3348 24.445 17.3362 24.2946 17.3367C24.1413 17.3373 23.9584 17.3367 23.6955 17.3367L22.3041 17.3367C21.9484 17.3367 21.6867 17.3367 21.519 17.335C21.3354 17.3327 21.1772 17.3271 21.019 17.3118C20.6873 17.2848 20.3632 17.198 20.0624 17.0556C19.8203 16.9383 19.5995 16.7813 19.4091 16.5912C19.1097 16.2906 18.8939 15.917 18.7831 15.5075C18.7072 15.2133 18.6683 14.9107 18.6674 14.6069C18.6637 14.46 18.6637 14.2981 18.6637 14.1515C18.6637 13.9999 18.6637 13.8486 18.6637 13.6965L18.6637 12.3038C18.6637 12.0409 18.6635 11.8579 18.664 11.705L18.6642 11.705ZM36.9999 45.6921C36.967 46.3351 36.6806 46.939 36.2036 47.3715C35.7266 47.804 35.0978 48.0301 34.4545 48.0002L21.5453 48.0002C20.9021 48.0301 20.2732 47.804 19.7962 47.3715C19.3192 46.939 19.0329 46.3351 18.9999 45.6921L18.9999 24.3133C19.033 23.6688 19.3199 23.0637 19.798 22.6302C20.2761 22.1967 20.9063 21.9702 21.5509 22.0002L34.4547 22.0002C35.0979 21.9703 35.7267 22.1963 36.2037 22.6289C36.6807 23.0614 36.967 23.6652 36.9999 24.3082L36.9999 45.6921Z" fill="rgb(29,29,31)" fill-rule="nonzero" />
	</g>
</svg>
