<svg viewBox="0 0 19 54" xmlns="http://www.w3.org/2000/svg" xmlns:xlink="http://www.w3.org/1999/xlink" width="19.000000" height="54.000000" fill="none" customFrame="#000000">
	<defs>
		<clipPath id="clipPath_1">
			<rect width="19.000000" height="54.000000" x="0.000000" y="0.000000" fill="rgb(255,255,255)" />
		</clipPath>
	</defs>
	<rect id="figure" width="19.000000" height="54.000000" x="0.000000" y="0.000000" />
	<g id="iphone_se_light__fhg8duy6ffau_large.svg" clip-path="url(#clipPath_1)" customFrame="url(#clipPath_1)">
		<rect id="iphone_se_light__fhg8duy6ffau_large.svg" width="19.000000" height="54.000000" x="0.000000" y="0.000000" />
		<path id="Vector" />
		<path id="Vector" d="M16 10L3 10C2.20508 10.0024 1.4434 10.3192 0.881302 10.8813C0.319207 11.4434 0.00237409 12.2051 2.77556e-16 13L0 47C0.00237409 47.7949 0.319207 48.5566 0.881302 49.1187C1.4434 49.6808 2.20508 49.9976 3 50L16 50C16.7949 49.9976 17.5566 49.6808 18.1187 49.1187C18.6808 48.5566 18.9976 47.7949 19 47L19 13C18.9976 12.2051 18.6808 11.4434 18.1187 10.8813C17.5566 10.3192 16.7949 10.0024 16 10ZM7.25 12.25L11.75 12.25C11.8163 12.25 11.8799 12.2763 11.9268 12.3232C11.9737 12.3701 12 12.4337 12 12.5C12 12.5663 11.9737 12.6299 11.9268 12.6768C11.8799 12.7237 11.8163 12.75 11.75 12.75L7.25 12.75C7.1837 12.75 7.12011 12.7237 7.07322 12.6768C7.02634 12.6299 7 12.5663 7 12.5C7 12.4337 7.02634 12.3701 7.07322 12.3232C7.12011 12.2763 7.1837 12.25 7.25 12.25ZM5.5 12.125C5.57417 12.125 5.64667 12.147 5.70834 12.1882C5.77001 12.2294 5.81807 12.288 5.84645 12.3565C5.87484 12.425 5.88226 12.5004 5.86779 12.5732C5.85332 12.6459 5.81761 12.7127 5.76516 12.7652C5.71272 12.8176 5.6459 12.8533 5.57316 12.8678C5.50042 12.8823 5.42502 12.8748 5.35649 12.8465C5.28797 12.8181 5.2294 12.77 5.1882 12.7083C5.14699 12.6467 5.125 12.5742 5.125 12.5C5.125 12.4005 5.16451 12.3052 5.23484 12.2348C5.30516 12.1645 5.40054 12.125 5.5 12.125ZM9.5 49.25C9.15388 49.25 8.81554 49.1474 8.52775 48.9551C8.23997 48.7628 8.01566 48.4895 7.88321 48.1697C7.75076 47.8499 7.7161 47.4981 7.78363 47.1586C7.85115 46.8191 8.01782 46.5073 8.26256 46.2626C8.5073 46.0178 8.81913 45.8512 9.15859 45.7836C9.49806 45.7161 9.84993 45.7508 10.1697 45.8832C10.4895 46.0157 10.7628 46.24 10.9551 46.5278C11.1474 46.8155 11.25 47.1539 11.25 47.5C11.25 47.9641 11.0656 48.4092 10.7374 48.7374C10.4092 49.0656 9.96413 49.25 9.5 49.25ZM18 45L1 45L1 15L18 15L18 45Z" fill="rgb(29,29,31)" fill-rule="nonzero" />
		<path id="Vector" d="M9.5 48.625C10.1213 48.625 10.625 48.1213 10.625 47.5C10.625 46.8787 10.1213 46.375 9.5 46.375C8.87868 46.375 8.375 46.8787 8.375 47.5C8.375 48.1213 8.87868 48.625 9.5 48.625Z" fill="rgb(29,29,31)" fill-rule="evenodd" />
	</g>
</svg>
