<svg viewBox="0 0 40 54" xmlns="http://www.w3.org/2000/svg" xmlns:xlink="http://www.w3.org/1999/xlink" width="40.000000" height="54.000000" fill="none" customFrame="#000000">
	<defs>
		<clipPath id="clipPath_0">
			<rect width="40.000000" height="54.000000" x="0.000000" y="0.000000" fill="rgb(255,255,255)" />
		</clipPath>
	</defs>
	<rect id="figure" width="40.000000" height="54.000000" x="0.000000" y="0.000000" />
	<g id="iphone_14_pro_light__dfhcc00ur2oi_large.svg" clip-path="url(#clipPath_0)" customFrame="url(#clipPath_0)">
		<rect id="iphone_14_pro_light__dfhcc00ur2oi_large.svg" width="40.000000" height="54.000000" x="0.000000" y="0.000000" />
		<path id="Vector" d="M0 0L40 0L40 54L0 54L0 0Z" fill-rule="nonzero" />
		<path id="Vector" d="M16.704 50.0003L6.0787 50.0003L5.7087 50.0003C5.6103 50.0003 5.51253 50 5.4154 49.9993C4.90403 50.0084 4.39291 49.9701 3.8886 49.885C3.54349 49.8202 3.20917 49.7074 2.8954 49.5498C2.2727 49.2339 1.76673 48.728 1.4508 48.1053C1.29316 47.7916 1.18039 47.4573 1.1158 47.1122C1.02518 46.5592 0.986607 45.999 1.0006 45.4388L1.0006 45.1455C1.0006 45.0714 1.0006 44.9967 1.0006 44.9216L1.0006 12.079C1.0006 12.0038 1.0006 11.9292 1.0006 11.8551C1.0006 11.7566 1.0006 11.6588 1.0006 11.5618C0.98661 11.0016 1.02518 10.4414 1.1158 9.88841C1.18041 9.54332 1.29318 9.20902 1.4508 8.89531C1.76669 8.27275 2.27254 7.7669 2.8951 7.45101C3.20887 7.29341 3.54319 7.18058 3.8883 7.11581C4.24265 7.05129 4.60167 7.01567 4.9618 7.00931C5.224 7.00121 5.5536 7.00031 5.8524 7.00031L6.0787 7.00031L14.9513 7.00031C14.9459 7.18951 14.9381 7.37771 14.9374 7.56931L14.9374 7.72151L14.9374 7.86431L14.9374 8.00031L6.0787 8.00031L5.9701 8.00031L5.8524 8.00031C5.5641 8.00031 5.2457 8.00091 4.9924 8.00881C4.68639 8.01332 4.38127 8.04292 4.0801 8.09731C3.82617 8.14419 3.58011 8.22663 3.3492 8.34221C2.91469 8.56211 2.56173 8.91497 2.3417 9.34941C2.22634 9.58005 2.14406 9.8258 2.0973 10.0794C2.01946 10.5705 1.98709 11.0678 2.0006 11.5649L2.0006 11.8549L2.0006 12.0788L2.0006 44.9216L2.0006 45.1421L2.0006 45.438C1.98716 45.934 2.01953 46.4302 2.0973 46.9203C2.14397 47.1743 2.22632 47.4205 2.3419 47.6514C2.56168 48.0859 2.91454 48.4387 3.349 48.6585C3.57993 48.774 3.82598 48.8564 4.0799 48.9033C4.52352 48.9757 4.97279 49.0077 5.4222 48.9991L5.7093 49.0003L6.0787 49.0003L15.7701 49.0003C16.0158 49.3893 16.3325 49.7285 16.7037 50.0003L16.704 50.0003ZM13.5865 8.58661C13.8288 8.58661 14.0612 8.68287 14.2326 8.85423C14.4039 9.02558 14.5002 9.25798 14.5002 9.50031C14.5002 9.74264 14.4039 9.97504 14.2326 10.1464C14.0612 10.3177 13.8288 10.414 13.5865 10.414L9.4139 10.414C9.17157 10.414 8.93917 10.3177 8.76781 10.1464C8.59646 9.97504 8.5002 9.74264 8.5002 9.50031C8.5002 9.25798 8.59646 9.02558 8.76781 8.85423C8.93917 8.68287 9.17157 8.58661 9.4139 8.58661L13.5865 8.58661ZM13.6388 9.05031C13.5498 9.05031 13.4628 9.0767 13.3888 9.12615C13.3148 9.17559 13.2571 9.24587 13.2231 9.3281C13.189 9.41033 13.1801 9.50081 13.1974 9.5881C13.2148 9.67539 13.2577 9.75557 13.3206 9.81851C13.3835 9.88144 13.4637 9.9243 13.551 9.94166C13.6383 9.95903 13.7288 9.95011 13.811 9.91605C13.8932 9.88199 13.9635 9.82432 14.013 9.75031C14.0624 9.67631 14.0888 9.58931 14.0888 9.50031C14.0888 9.38096 14.0414 9.2665 13.957 9.18211C13.8726 9.09772 13.7581 9.05031 13.6388 9.05031ZM30.5001 5.50031C30.5001 5.74261 30.4038 5.97498 30.2325 6.14633C30.0612 6.31767 29.8288 6.41396 29.5865 6.41401L25.4139 6.41401C25.1716 6.41401 24.9392 6.31774 24.7678 6.14639C24.5965 5.97504 24.5002 5.74264 24.5002 5.50031C24.5002 5.25798 24.5965 5.02558 24.7678 4.85423C24.9392 4.68287 25.1716 4.58661 25.4139 4.58661L29.5865 4.58661C29.8288 4.58663 30.0612 4.68291 30.2325 4.85426C30.4038 5.02561 30.5001 5.258 30.5001 5.50031ZM30.0885 5.50031C30.0885 5.41131 30.0621 5.3243 30.0127 5.2503C29.9632 5.1763 29.8929 5.11862 29.8107 5.08456C29.7285 5.0505 29.638 5.04159 29.5507 5.05896C29.4634 5.07632 29.3832 5.11918 29.3203 5.18211C29.2574 5.24504 29.2145 5.32523 29.1971 5.41252C29.1798 5.49981 29.1887 5.59029 29.2228 5.67252C29.2568 5.75474 29.3145 5.82502 29.3885 5.87447C29.4625 5.92392 29.5495 5.95031 29.6385 5.95031C29.7578 5.95031 29.8723 5.9029 29.9567 5.81851C30.0411 5.73412 30.0885 5.61966 30.0885 5.50031ZM39.0001 7.86691L39.0001 45.1337C39.0001 45.2325 39.0001 45.3304 38.9996 45.4277C39.0137 45.9892 38.9752 46.5509 38.8844 47.1052C38.8194 47.4511 38.7062 47.7861 38.5482 48.1006C38.2317 48.7249 37.7244 49.2321 37.1001 49.5485C36.7857 49.7065 36.4507 49.8197 36.1048 49.8845C35.7495 49.9492 35.3896 49.9849 35.0286 49.9913C34.7664 49.9994 34.4368 50.0003 34.138 50.0003L33.9087 50.0003L21.0912 50.0003L20.7201 50.0003C20.6214 50.0003 20.5234 50 20.4261 49.9993C20.0026 49.9997 19.5796 49.9721 19.1598 49.9169C19.0721 49.9046 18.982 49.9015 18.8956 49.8847C18.5497 49.8199 18.2147 49.7067 17.9003 49.5487C17.6189 49.4038 17.3599 49.2191 17.1312 49.0003C17.1085 48.979 17.0824 48.962 17.0604 48.9403C16.8147 48.6943 16.6094 48.411 16.452 48.101C16.294 47.7865 16.1808 47.4515 16.1158 47.1056C16.0248 46.5512 15.9861 45.9894 16.0001 45.4277C16.0001 45.3304 16.0001 45.2325 16.0001 45.1337L16.0001 7.86691C16.0001 7.76801 16.0001 7.67011 16.0001 7.57281C16.0008 7.38101 16.0074 7.19091 16.0128 7.00041C16.017 6.62987 16.0512 6.26029 16.1153 5.89531C16.1805 5.54955 16.2938 5.21462 16.452 4.90031C16.7683 4.27578 17.2756 3.76845 17.9001 3.45211C18.2145 3.29407 18.5495 3.18096 18.8954 3.11611C19.2506 3.0514 19.6106 3.01569 19.9716 3.00931C20.2338 3.00121 20.5634 3.00031 20.8622 3.00031L21.0915 3.00031L33.909 3.00031L34.0958 3.00031L34.2801 3.00031C34.3787 3.00031 34.4766 3.00031 34.5743 3.00131C35.0867 2.99221 35.5989 3.03057 36.1043 3.11591C36.4502 3.18077 36.7852 3.29387 37.0996 3.45191C37.7243 3.76822 38.2318 4.27563 38.5482 4.90031C38.7062 5.21475 38.8194 5.54977 38.8844 5.89561C38.9753 6.44983 39.014 7.01135 39.0001 7.57281L39.0001 7.86691ZM38.0001 7.86691L38.0001 7.71811L38.0001 7.57531C38.0136 7.07732 37.9813 6.57915 37.9034 6.08711C37.8563 5.83243 37.7736 5.58565 37.6578 5.35401C37.4372 4.91789 37.0829 4.56369 36.6468 4.34311C36.4152 4.22727 36.1685 4.14463 35.9139 4.09761C35.4692 4.02502 35.0187 3.99285 34.5682 4.00151L34.2794 4.00031L34.0958 4.00031L34.0033 4.00031L21.0912 4.00031L20.9812 4.00031L20.8623 4.00031C20.5737 4.00031 20.2556 4.00101 20.0023 4.00881C19.6952 4.01327 19.389 4.04297 19.0868 4.09761C18.8321 4.14466 18.5853 4.22734 18.3536 4.34321C17.9177 4.5635 17.5636 4.91739 17.3431 5.35321C17.2271 5.58508 17.1444 5.83214 17.0973 6.08711C17.0452 6.38881 17.0169 6.69416 17.0128 7.00031C17.0069 7.18731 17.0013 7.37351 17.0006 7.57611L17.0006 7.72401L17.0006 7.86921L17.0006 45.1337L17.0006 45.2765L17.0006 45.4252C16.987 45.9232 17.0194 46.4213 17.0973 46.9133C17.1444 47.168 17.227 47.4149 17.3429 47.6466C17.5634 48.0826 17.9174 48.4367 18.3534 48.6573C18.5851 48.7732 18.832 48.8559 19.0868 48.903C19.1061 48.9068 19.1275 48.9066 19.1468 48.9101C19.5721 48.9752 20.002 49.0049 20.4322 48.9991L20.7203 49.0001L21.0909 49.0001L34.0194 49.0001L34.1383 49.0001C34.4269 49.0001 34.745 48.9994 34.9983 48.9916C35.3054 48.987 35.6116 48.9573 35.9138 48.9028C36.1685 48.8558 36.4153 48.7731 36.647 48.6572C37.0827 48.4365 37.4365 48.0824 37.657 47.6466C37.773 47.4148 37.8558 47.1677 37.9028 46.9128C37.9809 46.4207 38.0135 45.9224 38.0001 45.4243L38.0001 45.2825L38.0001 45.1312L38.0001 7.86691Z" fill="rgb(29,29,31)" fill-rule="nonzero" />
	</g>
</svg>
